# xmcd
#
# Track frame offsets:
#	150
#	11650
#	21264
#	34097
#	45133
#	57302
#	68861
#	79471
#	91243
#	101339
#	113637
#	127003
#	138070
#	148900
#	161104
#	170864
#	183423
#	196496
#	208475
#	221666
#	233489
#	243075
#	257369
#	267753
#
# Disc length: 3717 seconds
# Revision: 0
# Processed by: cddbd v1.5.2PL0 Copyright (c) Steve Scherf et al.
# Submitted via: dBpowerAMP V12.0
#
DISCID=550e8318
DTITLE=Ligntnin' Slim - Rooster Blues
DYEAR=2014
DGENRE=Blues
TTITLE0=Rooster Blues
TTITLE1=Long Leanie Mama
TTITLE2=My Starter Won't Work
TTITLE3=G.I. Slim
TTITLE4=Lightnin's Troubles
TTITLE5=Bed Bug Blues
TTITLE6=Hoo-Doo Blues
TTITLE7=It's Mighty Crazy
TTITLE8=Sweet Little Woman
TTITLE9=Tom Cat Blues
TTITLE10=Feelin' Awful Blues
TTITLE11=I'm Leavin' You Baby
TTITLE12=I'm a Rollin' Stone
TTITLE13=Hello Mary Lee
TTITLE14=Just Made Twenty-One
TTITLE15=Sugar Plum
TTITLE16=Wonderin' and Goin'
TTITLE17=Goin' Home
TTITLE18=Bad Luck and Trouble
TTITLE19=Have Your Way
TTITLE20=I'm Warning You Baby
TTITLE21=Mean Ole Lonesome Train
TTITLE22=Mind Your Own Business
TTITLE23=Love Me Mama
EXTD=
EXTT0=
EXTT1=
EXTT2=
EXTT3=
EXTT4=
EXTT5=
EXTT6=
EXTT7=
EXTT8=
EXTT9=
EXTT10=
EXTT11=
EXTT12=
EXTT13=
EXTT14=
EXTT15=
EXTT16=
EXTT17=
EXTT18=
EXTT19=
EXTT20=
EXTT21=
EXTT22=
EXTT23=
PLAYORDER=
